<?xml version="1.0" standalone="no"?>
<!DOCTYPE svg PUBLIC "-//W3C//DTD SVG 20010904//EN"
 "http://www.w3.org/TR/2001/REC-SVG-20010904/DTD/svg10.dtd">
<svg version="1.0" xmlns="http://www.w3.org/2000/svg"
 width="3888.000000pt" height="3888.000000pt" viewBox="0 0 3888.000000 3888.000000"
 preserveAspectRatio="xMidYMid meet">

<g transform="translate(0.000000,3888.000000) scale(0.100000,-0.100000)"
fill="#000000" stroke="none">
<path d="M0 19440 l0 -19440 19440 0 19440 0 0 19440 0 19440 -19440 0 -19440
0 0 -19440z m30560 12480 l0 -4180 -535 0 -535 0 0 -3992 0 -3993 -632 -632
-633 -633 -292 0 -293 0 0 -292 0 -293 -632 -632 -633 -633 -287 0 -288 0 0
-287 0 -288 -397 -397 -398 -398 -2780 0 -2780 0 -2432 -2432 -2433 -2433 0
2433 0 2432 -3125 0 -3125 0 0 10415 0 10415 11115 0 11115 0 0 -4180z m-2920
-21565 l0 -1105 -920 0 -920 0 0 920 0 920 735 0 735 0 0 185 0 185 185 0 185
0 0 -1105z m9250 -185 l0 -920 -3700 0 -3700 0 0 920 0 920 3700 0 3700 0 0
-920z"/>
<path d="M15970 27075 l0 -4165 1390 0 1390 0 0 4165 0 4165 -1390 0 -1390 0
0 -4165z"/>
<path d="M23610 27075 l0 -4165 1390 0 1390 0 0 4165 0 4165 -1390 0 -1390 0
0 -4165z"/>
</g>
</svg>
